<?xml version="1.0" encoding="utf-8"?>
<!-- Generator: Adobe Illustrator 16.0.0, SVG Export Plug-In . SVG Version: 6.00 Build 0)  -->
<!DOCTYPE svg PUBLIC "-//W3C//DTD SVG 1.1 Basic//EN" "http://www.w3.org/Graphics/SVG/1.1/DTD/svg11-basic.dtd">
<svg version="1.1" baseProfile="basic" id="Layer_1"
	 xmlns="http://www.w3.org/2000/svg" xmlns:xlink="http://www.w3.org/1999/xlink" x="0px" y="0px" width="109.881px"
	 height="128.66px" viewBox="0 0 109.881 128.66" xml:space="preserve">
<g>
	<polygon fill="#63D0DF" points="0,0 55.064,31.796 55.064,96.928 55.06,96.928 0,65.131 	"/>
	<path fill="#231F20" d="M109.885,64.905v-1.437l-0.997-0.56v0.002L56.181,32.476l-1.254-0.758l-1.093,0.667L0.966,62.909v-0.001
		l-0.997,0.56v1.437l0.002,61.153v2.602h109.914v-3.089h-0.004V64.905H109.885z M3.06,65.267l50.323-29.053v58.112L3.06,123.382
		V65.267z M5.454,125.571l49.475-28.568l49.473,28.568H5.454z M106.792,123.382L56.474,94.326V36.214l50.318,29.053V123.382z"/>
</g>
</svg>
