<?xml version="1.0" encoding="utf-8"?>
<!-- Generator: Adobe Illustrator 16.0.0, SVG Export Plug-In . SVG Version: 6.00 Build 0)  -->
<!DOCTYPE svg PUBLIC "-//W3C//DTD SVG 1.1 Basic//EN" "http://www.w3.org/Graphics/SVG/1.1/DTD/svg11-basic.dtd">
<svg version="1.1" baseProfile="basic" id="Layer_1"
	 xmlns="http://www.w3.org/2000/svg" xmlns:xlink="http://www.w3.org/1999/xlink" x="0px" y="0px" width="158.353px"
	 height="208.22px" viewBox="0 0 158.353 208.22" xml:space="preserve">
<g>
	<defs>
		<rect id="SVGID_1_" width="158.353" height="208.22"/>
	</defs>
	<clipPath id="SVGID_2_">
		<use xlink:href="#SVGID_1_"  overflow="visible"/>
	</clipPath>
	<path clip-path="url(#SVGID_2_)" fill="#231F20" d="M0.034,157.826h7.854c1.048,0,1.957,0.145,2.724,0.438
		c0.768,0.291,1.417,0.702,1.951,1.238c0.5,0.516,0.891,1.117,1.175,1.799c0.283,0.684,0.426,1.441,0.426,2.275
		c0,0.852-0.138,1.623-0.413,2.314c-0.276,0.693-0.667,1.285-1.176,1.775c-0.508,0.49-1.133,0.873-1.876,1.15
		c-0.741,0.273-1.579,0.412-2.513,0.412h-4.4v6.479H0.034V157.826z M3.786,166.277h3.75c0.951,0,1.672-0.242,2.163-0.725
		c0.492-0.484,0.738-1.133,0.738-1.951c0-0.85-0.25-1.5-0.75-1.951c-0.501-0.449-1.2-0.674-2.1-0.674H3.786V166.277z"/>
	<path clip-path="url(#SVGID_2_)" fill="#231F20" d="M44.047,176.105c-1.317,0-2.509-0.232-3.576-0.699s-1.975-1.113-2.726-1.939
		c-0.751-0.824-1.326-1.809-1.726-2.951c-0.4-1.141-0.599-2.379-0.599-3.713s0.199-2.57,0.599-3.713
		c0.4-1.143,0.975-2.131,1.726-2.965c0.751-0.832,1.659-1.484,2.726-1.949c1.067-0.467,2.259-0.701,3.576-0.701
		c1.316,0,2.505,0.234,3.564,0.701c1.058,0.465,1.963,1.117,2.714,1.949c0.749,0.834,1.324,1.822,1.724,2.965
		s0.601,2.379,0.601,3.713s-0.201,2.572-0.601,3.713c-0.4,1.143-0.975,2.127-1.724,2.951c-0.751,0.826-1.656,1.473-2.714,1.939
		C46.552,175.873,45.363,176.105,44.047,176.105 M44.073,173.128c0.815,0,1.527-0.162,2.139-0.486
		c0.607-0.325,1.114-0.771,1.524-1.338c0.407-0.568,0.712-1.239,0.913-2.014c0.198-0.773,0.299-1.604,0.299-2.488
		c0-0.9-0.101-1.734-0.299-2.5c-0.201-0.768-0.506-1.439-0.913-2.014c-0.41-0.576-0.917-1.025-1.524-1.35
		c-0.612-0.326-1.324-0.488-2.139-0.488c-0.819,0-1.534,0.162-2.151,0.488c-0.619,0.324-1.135,0.773-1.551,1.35
		c-0.416,0.574-0.73,1.246-0.94,2.014c-0.208,0.766-0.31,1.6-0.31,2.5c0,0.885,0.102,1.715,0.31,2.488
		c0.21,0.774,0.524,1.445,0.94,2.014c0.416,0.566,0.932,1.013,1.551,1.338C42.539,172.966,43.254,173.128,44.073,173.128"/>
	<path clip-path="url(#SVGID_2_)" fill="#231F20" d="M79.384,176.031c-1.866,0-3.309-0.426-4.326-1.277
		c-1.018-0.848-1.525-2.159-1.525-3.924v-1.778h3.25v1.552c0,0.9,0.196,1.543,0.588,1.928c0.391,0.383,0.963,0.574,1.713,0.574
		c0.751,0,1.296-0.209,1.639-0.627c0.341-0.416,0.514-1.025,0.514-1.824v-12.828h3.625v12.851c0,0.769-0.112,1.478-0.338,2.128
		s-0.563,1.213-1.013,1.688c-0.45,0.477-1.021,0.85-1.713,1.127C81.105,175.892,80.3,176.031,79.384,176.031"/>
	<path clip-path="url(#SVGID_2_)" fill="#231F20" d="M111.92,157.826h3.752l6.302,17.881h-3.776l-1.202-3.803h-6.452l-1.173,3.803
		h-3.678L111.92,157.826z M111.395,169.128h4.726l-1.599-5.152c-0.085-0.232-0.163-0.508-0.237-0.824
		c-0.076-0.316-0.156-0.617-0.239-0.9c-0.083-0.334-0.167-0.676-0.25-1.025h-0.051c-0.099,0.35-0.191,0.691-0.274,1.025
		c-0.083,0.283-0.162,0.584-0.237,0.9c-0.074,0.316-0.154,0.592-0.238,0.824L111.395,169.128z"/>
	<path clip-path="url(#SVGID_2_)" fill="#231F20" d="M143.455,157.826h3.676l5.951,9.979c0.133,0.247,0.276,0.521,0.426,0.812
		c0.149,0.289,0.292,0.561,0.426,0.813c0.149,0.298,0.282,0.591,0.399,0.875h0.049c-0.017-0.353-0.032-0.709-0.049-1.077
		c-0.017-0.316-0.029-0.654-0.037-1.014c-0.009-0.357-0.014-0.695-0.014-1.012v-9.377h3.577v17.881h-3.502l-6.103-9.879
		c-0.149-0.234-0.296-0.496-0.437-0.789c-0.142-0.291-0.28-0.563-0.411-0.811c-0.151-0.301-0.293-0.594-0.426-0.877h-0.053
		c0.019,0.367,0.034,0.734,0.053,1.1c0.016,0.318,0.029,0.656,0.038,1.014c0.007,0.359,0.01,0.695,0.01,1.014v9.229h-3.574V157.826z
		"/>
	<polygon clip-path="url(#SVGID_2_)" fill="#231F20" points="0,187.462 0.927,187.462 0.927,191.119 4.552,187.462 5.716,187.462 
		2.739,190.408 5.963,194.826 4.882,194.826 2.111,191.037 0.927,192.22 0.927,194.826 0,194.826 	"/>
	<path clip-path="url(#SVGID_2_)" fill="#231F20" d="M14.964,194.98c-0.557,0-1.059-0.098-1.504-0.289
		c-0.447-0.191-0.824-0.459-1.133-0.803c-0.308-0.342-0.549-0.75-0.717-1.221c-0.167-0.469-0.251-0.981-0.251-1.529
		c0-0.549,0.084-1.059,0.251-1.527c0.168-0.471,0.409-0.877,0.717-1.223c0.309-0.342,0.686-0.611,1.133-0.803
		c0.445-0.191,0.947-0.287,1.504-0.287c0.555,0,1.056,0.096,1.503,0.287c0.444,0.191,0.823,0.461,1.132,0.803
		c0.308,0.346,0.547,0.752,0.716,1.223c0.168,0.469,0.253,0.979,0.253,1.527c0,0.548-0.085,1.061-0.253,1.529
		c-0.169,0.471-0.408,0.879-0.716,1.221c-0.309,0.344-0.688,0.611-1.132,0.803C16.02,194.882,15.519,194.98,14.964,194.98
		 M14.964,194.166c0.432,0,0.812-0.076,1.143-0.23c0.328-0.154,0.606-0.365,0.833-0.633c0.227-0.27,0.396-0.588,0.51-0.959
		c0.113-0.369,0.17-0.773,0.17-1.205s-0.057-0.834-0.17-1.203c-0.114-0.371-0.283-0.691-0.51-0.965
		c-0.227-0.27-0.505-0.482-0.833-0.637c-0.331-0.156-0.711-0.232-1.143-0.232c-0.434,0-0.814,0.076-1.145,0.232
		c-0.329,0.154-0.607,0.367-0.834,0.637c-0.225,0.273-0.396,0.594-0.509,0.965c-0.113,0.369-0.17,0.771-0.17,1.203
		s0.057,0.836,0.17,1.205c0.113,0.371,0.284,0.689,0.509,0.959c0.227,0.268,0.505,0.479,0.834,0.633
		C14.15,194.089,14.53,194.166,14.964,194.166"/>
	<path clip-path="url(#SVGID_2_)" fill="#231F20" d="M25.239,187.462h1.184l2.389,6.117h0.02l2.369-6.117h1.204v7.363H31.52v-6.055
		H31.5c-0.042,0.107-0.079,0.219-0.114,0.33c-0.036,0.096-0.071,0.197-0.107,0.303c-0.039,0.105-0.074,0.203-0.108,0.295
		l-2.019,5.127h-0.71l-2.019-5.127c-0.036-0.098-0.071-0.197-0.109-0.299c-0.037-0.104-0.074-0.203-0.107-0.299
		c-0.034-0.111-0.073-0.223-0.114-0.33h-0.02v6.055h-0.834V187.462z"/>
	<path clip-path="url(#SVGID_2_)" fill="#231F20" d="M39.356,187.462h3.068c0.393,0,0.735,0.063,1.026,0.186
		c0.29,0.123,0.534,0.299,0.726,0.524c0.158,0.179,0.28,0.388,0.366,0.624c0.086,0.238,0.128,0.496,0.128,0.777
		c0,0.68-0.194,1.211-0.581,1.59c-0.389,0.383-0.989,0.572-1.798,0.572h-2.007v3.09h-0.928V187.462z M40.284,190.986h1.936
		c0.521,0,0.906-0.123,1.158-0.367c0.251-0.244,0.376-0.578,0.376-1.004c0-0.445-0.129-0.781-0.387-1.008
		c-0.257-0.229-0.623-0.342-1.096-0.342h-1.987V190.986z"/>
	<polygon clip-path="url(#SVGID_2_)" fill="#231F20" points="51.137,187.462 52.065,187.462 52.065,193.97 55.926,193.97 
		55.926,194.826 51.137,194.826 	"/>
	<polygon clip-path="url(#SVGID_2_)" fill="#231F20" points="62.413,187.462 67.613,187.462 67.613,188.277 63.34,188.277 
		63.34,190.603 67.222,190.603 67.222,191.386 63.34,191.386 63.34,193.97 67.737,193.97 67.737,194.826 62.413,194.826 	"/>
	<polygon clip-path="url(#SVGID_2_)" fill="#231F20" points="76.396,191.056 74.028,187.462 75.099,187.462 76.921,190.408 
		76.941,190.408 78.807,187.462 79.826,187.462 77.417,191.066 79.897,194.826 78.785,194.826 76.89,191.726 76.871,191.726 
		74.894,194.826 73.843,194.826 	"/>
	<path clip-path="url(#SVGID_2_)" fill="#231F20" d="M93.511,187.462h5.2v0.814h-4.273v2.326h3.881v0.783h-3.881v2.585h4.397v0.854
		h-5.324V187.462z M96.373,184.826h1.028l-0.844,1.246h-0.71L96.373,184.826z"/>
	<path clip-path="url(#SVGID_2_)" fill="#231F20" d="M105.484,187.462h3.07c0.392,0,0.732,0.063,1.023,0.186
		s0.535,0.299,0.727,0.524c0.158,0.179,0.279,0.388,0.366,0.624c0.086,0.238,0.128,0.496,0.128,0.777c0,0.68-0.193,1.211-0.582,1.59
		c-0.387,0.383-0.986,0.572-1.797,0.572h-2.007v3.09h-0.929V187.462z M106.413,190.986h1.936c0.521,0,0.908-0.123,1.158-0.367
		s0.375-0.578,0.375-1.004c0-0.445-0.126-0.781-0.387-1.008c-0.257-0.229-0.622-0.342-1.095-0.342h-1.987V190.986z"/>
	<path clip-path="url(#SVGID_2_)" fill="#231F20" d="M120.088,194.939c-0.406,0-0.78-0.047-1.123-0.139
		c-0.343-0.094-0.641-0.24-0.891-0.438c-0.25-0.201-0.446-0.457-0.592-0.773c-0.145-0.316-0.216-0.695-0.216-1.141v-4.986h0.927
		v4.891c0,0.633,0.169,1.09,0.504,1.371c0.338,0.281,0.809,0.422,1.422,0.422c0.583,0,1.04-0.141,1.369-0.422
		s0.494-0.738,0.494-1.371v-4.891h0.927v4.986c0,0.445-0.075,0.824-0.22,1.141c-0.149,0.316-0.35,0.572-0.604,0.773
		c-0.253,0.197-0.553,0.344-0.896,0.438C120.846,194.892,120.478,194.939,120.088,194.939 M118.842,185.023h0.805V186h-0.805
		V185.023z M120.53,185.023h0.803V186h-0.803V185.023z"/>
	<polygon clip-path="url(#SVGID_2_)" fill="#231F20" points="129.736,187.462 130.664,187.462 130.664,193.97 134.525,193.97 
		134.525,194.826 129.736,194.826 	"/>
	<polygon clip-path="url(#SVGID_2_)" fill="#231F20" points="141.011,187.462 146.211,187.462 146.211,188.277 141.939,188.277 
		141.939,190.603 145.819,190.603 145.819,191.386 141.939,191.386 141.939,193.97 146.335,193.97 146.335,194.826 141.011,194.826 
			"/>
	<polygon clip-path="url(#SVGID_2_)" fill="#231F20" points="152.523,187.462 158.353,187.462 158.353,188.277 155.902,188.277 
		155.902,194.826 154.976,194.826 154.976,188.277 152.523,188.277 	"/>
	<path clip-path="url(#SVGID_2_)" fill="#231F20" d="M11.522,200.703h1.185l2.388,6.117h0.021l2.369-6.117h1.204v7.363h-0.886
		v-6.057h-0.019c-0.041,0.111-0.079,0.223-0.114,0.33c-0.035,0.096-0.07,0.197-0.108,0.305s-0.075,0.204-0.108,0.293l-2.018,5.129
		h-0.711l-2.018-5.129c-0.036-0.096-0.07-0.195-0.109-0.299c-0.037-0.104-0.074-0.203-0.107-0.299
		c-0.035-0.107-0.073-0.219-0.115-0.33h-0.019v6.057h-0.835V200.703z"/>
	<polygon clip-path="url(#SVGID_2_)" fill="#231F20" points="25.641,200.703 30.841,200.703 30.841,201.517 26.568,201.517 
		26.568,203.843 30.45,203.843 30.45,204.626 26.568,204.626 26.568,207.21 30.964,207.21 30.964,208.066 25.641,208.066 	"/>
	<path clip-path="url(#SVGID_2_)" fill="#231F20" d="M42.961,207.097h-0.02c-0.268,0.377-0.596,0.66-0.985,0.844
		c-0.387,0.186-0.825,0.279-1.312,0.279c-0.514,0-0.986-0.096-1.412-0.285c-0.425-0.188-0.79-0.451-1.094-0.787
		c-0.306-0.336-0.543-0.736-0.706-1.205c-0.165-0.467-0.247-0.979-0.247-1.533c0-0.541,0.075-1.047,0.224-1.52
		c0.154-0.471,0.377-0.879,0.676-1.225c0.3-0.348,0.67-0.621,1.112-0.818c0.442-0.199,0.953-0.299,1.53-0.299
		c0.425,0,0.81,0.057,1.153,0.168c0.343,0.113,0.642,0.273,0.895,0.48c0.254,0.205,0.46,0.455,0.618,0.746
		c0.159,0.291,0.268,0.617,0.33,0.975h-0.957c-0.105-0.494-0.327-0.879-0.67-1.154c-0.344-0.275-0.806-0.412-1.391-0.412
		c-0.445,0-0.829,0.078-1.154,0.236c-0.321,0.16-0.588,0.375-0.796,0.645c-0.211,0.271-0.365,0.595-0.468,0.97
		c-0.104,0.372-0.156,0.774-0.156,1.208c0,0.455,0.061,0.863,0.185,1.23s0.299,0.684,0.527,0.947
		c0.225,0.266,0.494,0.469,0.807,0.614c0.312,0.142,0.654,0.214,1.026,0.214c0.377,0,0.705-0.059,0.981-0.18
		c0.28-0.118,0.511-0.281,0.696-0.488s0.323-0.447,0.413-0.723c0.088-0.273,0.133-0.564,0.133-0.875v-0.176h-2.213v-0.803h3.139
		v3.895h-0.597L42.961,207.097z"/>
	<path clip-path="url(#SVGID_2_)" fill="#231F20" d="M49.828,200.703h1l1.811,5.479c0.028,0.088,0.059,0.188,0.088,0.299
		c0.032,0.109,0.065,0.215,0.098,0.318c0.035,0.123,0.069,0.246,0.104,0.371h0.019c0.036-0.125,0.068-0.248,0.105-0.371
		c0.034-0.104,0.064-0.211,0.092-0.326c0.028-0.109,0.058-0.209,0.092-0.291l1.791-5.479h0.969l-2.584,7.363h-1.021L49.828,200.703z
		"/>
	<path clip-path="url(#SVGID_2_)" fill="#231F20" d="M63.762,200.703h1.04l2.718,7.363h-1.008l-0.783-2.246h-2.936L62,208.066
		h-0.947L63.762,200.703z M63.06,205.068h2.412l-0.846-2.471c-0.035-0.104-0.071-0.215-0.108-0.334s-0.073-0.234-0.107-0.334
		c-0.035-0.125-0.074-0.248-0.114-0.371h-0.021c-0.042,0.115-0.078,0.236-0.113,0.359c-0.035,0.102-0.073,0.217-0.113,0.34
		c-0.041,0.123-0.08,0.236-0.114,0.34L63.06,205.068z"/>
	<polygon clip-path="url(#SVGID_2_)" fill="#231F20" points="73.883,200.703 74.811,200.703 74.811,207.21 78.672,207.21 
		78.672,208.066 73.883,208.066 	"/>
	<path clip-path="url(#SVGID_2_)" fill="#231F20" d="M88.021,208.22c-0.556,0-1.057-0.096-1.503-0.289
		c-0.447-0.191-0.824-0.461-1.133-0.802c-0.309-0.345-0.548-0.75-0.715-1.222c-0.17-0.471-0.254-0.979-0.254-1.53
		c0-0.548,0.084-1.058,0.254-1.528c0.167-0.472,0.406-0.877,0.715-1.219c0.309-0.346,0.686-0.611,1.133-0.803
		c0.446-0.193,0.947-0.289,1.503-0.289s1.057,0.096,1.505,0.289c0.445,0.191,0.822,0.457,1.131,0.803
		c0.309,0.342,0.548,0.747,0.715,1.219c0.169,0.471,0.254,0.98,0.254,1.528c0,0.552-0.085,1.06-0.254,1.53
		c-0.167,0.472-0.406,0.877-0.715,1.222c-0.309,0.341-0.686,0.61-1.131,0.802C89.078,208.125,88.577,208.22,88.021,208.22
		 M88.021,207.406c0.433,0,0.814-0.076,1.144-0.23c0.329-0.156,0.606-0.367,0.832-0.635c0.228-0.268,0.397-0.586,0.511-0.959
		c0.113-0.369,0.171-0.77,0.171-1.204c0-0.431-0.058-0.833-0.171-1.204c-0.113-0.369-0.283-0.691-0.511-0.961
		c-0.226-0.271-0.503-0.484-0.832-0.641c-0.329-0.152-0.711-0.23-1.144-0.23s-0.813,0.078-1.145,0.23
		c-0.328,0.156-0.605,0.369-0.832,0.641c-0.228,0.27-0.396,0.592-0.51,0.961c-0.114,0.371-0.171,0.773-0.171,1.204
		c0,0.435,0.057,0.835,0.171,1.204c0.113,0.373,0.282,0.691,0.51,0.959c0.227,0.268,0.504,0.479,0.832,0.635
		C87.209,207.33,87.589,207.406,88.021,207.406 M88.164,198.066h1.03l-0.845,1.244h-0.709L88.164,198.066z"/>
	<path clip-path="url(#SVGID_2_)" fill="#231F20" d="M100.977,208.208c-0.517,0-0.965-0.064-1.349-0.199
		c-0.385-0.135-0.705-0.32-0.964-0.557c-0.258-0.236-0.455-0.518-0.593-0.84c-0.137-0.322-0.215-0.67-0.236-1.041h0.905
		c0.124,1.266,0.885,1.896,2.277,1.896c0.253,0,0.489-0.029,0.705-0.088s0.401-0.145,0.556-0.258s0.274-0.256,0.361-0.432
		c0.086-0.176,0.128-0.377,0.128-0.604c0-0.254-0.052-0.463-0.159-0.627c-0.107-0.166-0.257-0.303-0.448-0.412
		c-0.192-0.109-0.423-0.201-0.696-0.273c-0.27-0.072-0.571-0.145-0.9-0.221c-0.321-0.07-0.63-0.15-0.921-0.241
		c-0.293-0.095-0.548-0.216-0.769-0.366c-0.218-0.152-0.394-0.342-0.523-0.572s-0.196-0.52-0.196-0.871
		c0-0.301,0.06-0.57,0.18-0.813c0.119-0.24,0.29-0.445,0.511-0.613c0.22-0.168,0.483-0.297,0.793-0.385
		c0.309-0.09,0.648-0.135,1.019-0.135c0.46,0,0.856,0.059,1.189,0.17c0.334,0.113,0.61,0.27,0.829,0.469
		c0.22,0.2,0.392,0.441,0.516,0.727c0.123,0.285,0.208,0.594,0.257,0.932h-0.875c-0.068-0.529-0.267-0.922-0.593-1.186
		c-0.325-0.26-0.759-0.391-1.302-0.391c-0.502,0-0.903,0.102-1.206,0.305c-0.302,0.203-0.451,0.494-0.451,0.881
		c0,0.203,0.047,0.377,0.142,0.518c0.097,0.143,0.231,0.264,0.402,0.361c0.172,0.1,0.377,0.182,0.612,0.244
		c0.238,0.061,0.494,0.119,0.768,0.174c0.357,0.076,0.702,0.16,1.03,0.252c0.33,0.094,0.621,0.221,0.876,0.387
		c0.253,0.164,0.456,0.379,0.606,0.643c0.152,0.264,0.228,0.604,0.228,1.014c0,0.346-0.067,0.65-0.202,0.918
		c-0.133,0.268-0.321,0.494-0.561,0.676c-0.24,0.18-0.524,0.32-0.854,0.416S101.373,208.208,100.977,208.208"/>
	<path clip-path="url(#SVGID_2_)" fill="#231F20" d="M110.337,200.703h0.926v7.363h-0.926V200.703z M110.943,198.066h1.029
		l-0.844,1.244h-0.71L110.943,198.066z"/>
	<polygon clip-path="url(#SVGID_2_)" fill="#231F20" points="117.771,200.703 123.598,200.703 123.598,201.517 121.147,201.517 
		121.147,208.066 120.221,208.066 120.221,201.517 117.771,201.517 	"/>
	<path clip-path="url(#SVGID_2_)" fill="#231F20" d="M131.28,200.703h1.04l2.719,7.363h-1.01l-0.781-2.246h-2.935l-0.794,2.246
		h-0.947L131.28,200.703z M130.58,205.068h2.409l-0.843-2.471c-0.036-0.104-0.072-0.215-0.109-0.334s-0.073-0.234-0.108-0.334
		c-0.034-0.125-0.072-0.248-0.114-0.371h-0.02c-0.042,0.115-0.078,0.236-0.113,0.359c-0.034,0.102-0.072,0.217-0.112,0.34
		c-0.042,0.123-0.08,0.236-0.114,0.34L130.58,205.068z M131.971,198.066h1.028l-0.843,1.244h-0.712L131.971,198.066z"/>
	<path clip-path="url(#SVGID_2_)" fill="#231F20" d="M143.977,208.208c-0.514,0-0.965-0.064-1.349-0.199s-0.705-0.32-0.962-0.557
		c-0.259-0.236-0.455-0.518-0.592-0.84c-0.14-0.322-0.218-0.67-0.237-1.041h0.905c0.125,1.266,0.883,1.896,2.277,1.896
		c0.253,0,0.487-0.029,0.705-0.088c0.215-0.059,0.4-0.145,0.556-0.258c0.152-0.113,0.273-0.256,0.36-0.432
		c0.085-0.176,0.129-0.377,0.129-0.604c0-0.254-0.054-0.463-0.161-0.627c-0.107-0.166-0.255-0.303-0.446-0.412
		c-0.194-0.109-0.425-0.201-0.694-0.273c-0.273-0.072-0.573-0.145-0.902-0.221c-0.323-0.07-0.63-0.15-0.921-0.241
		c-0.293-0.095-0.55-0.216-0.768-0.366c-0.221-0.152-0.395-0.342-0.526-0.572c-0.13-0.23-0.194-0.52-0.194-0.871
		c0-0.301,0.06-0.57,0.18-0.813c0.121-0.24,0.289-0.445,0.509-0.613c0.221-0.168,0.485-0.297,0.793-0.385
		c0.309-0.09,0.651-0.135,1.021-0.135c0.458,0,0.855,0.059,1.189,0.17c0.332,0.113,0.609,0.27,0.829,0.469
		c0.218,0.2,0.39,0.441,0.514,0.727c0.123,0.285,0.21,0.594,0.258,0.932h-0.876c-0.067-0.529-0.266-0.922-0.591-1.186
		c-0.325-0.26-0.761-0.391-1.304-0.391c-0.5,0-0.901,0.102-1.204,0.305c-0.301,0.203-0.453,0.494-0.453,0.881
		c0,0.203,0.049,0.377,0.146,0.518c0.095,0.143,0.229,0.264,0.4,0.361c0.172,0.1,0.377,0.182,0.614,0.244
		c0.235,0.061,0.491,0.119,0.766,0.174c0.355,0.076,0.7,0.16,1.03,0.252c0.33,0.094,0.62,0.221,0.876,0.387
		c0.253,0.164,0.455,0.379,0.607,0.643c0.149,0.264,0.226,0.604,0.226,1.014c0,0.346-0.066,0.65-0.199,0.918
		c-0.137,0.268-0.321,0.494-0.563,0.676c-0.24,0.18-0.526,0.32-0.854,0.416C144.739,208.162,144.377,208.208,143.977,208.208"/>
	<polygon clip-path="url(#SVGID_2_)" fill="#63D0DF" points="24.143,0 79.207,31.796 79.207,96.928 79.202,96.928 24.143,65.131 	
		"/>
	<path clip-path="url(#SVGID_2_)" fill="#231F20" d="M134.027,64.905v-1.437l-0.997-0.56v0.002L80.323,32.476l-1.254-0.758
		l-1.093,0.667L25.108,62.909v-0.001l-0.997,0.56v1.437l0.002,61.153v2.602h109.914v-3.089h-0.004V64.905H134.027z M27.203,65.267
		l50.323-29.053v58.112l-50.323,29.056V65.267z M29.597,125.571l49.475-28.568l49.473,28.568H29.597z M130.935,123.382
		L80.616,94.326V36.214l50.318,29.053V123.382z"/>
</g>
</svg>
